<svg id="Layer_2" data-name="Layer 2" xmlns="http://www.w3.org/2000/svg" viewBox="0 0 165.009 38"><defs><style>.cls-1{fill:#14bf98;}.cls-2{fill:#fff;}</style></defs><title>logo</title><polygon class="cls-1" points="5.7 15.7 1.9 15.7 0 19 1.9 22.3 5.7 22.3 7.7 19 5.7 15.7"/><polygon class="cls-1" points="10.3 7.8 6.5 7.8 4.6 11.1 6.5 14.4 10.3 14.4 12.2 11.1 10.3 7.8"/><polygon class="cls-1" points="14.8 0 11 0 9.1 3.3 11 6.6 14.8 6.6 16.7 3.3 14.8 0"/><polygon class="cls-1" points="23.9 0 20 0 18.1 3.3 20 6.6 23.9 6.6 25.8 3.3 23.9 0"/><polygon class="cls-1" points="19.1 8.6 16.2 8.6 14.7 11.1 16.2 13.6 19.1 13.6 20.6 11.1 19.1 8.6"/><polygon class="cls-1" points="28.2 8.6 25.2 8.6 23.8 11.1 25.2 13.6 28.2 13.6 29.6 11.1 28.2 8.6"/><polygon class="cls-1" points="18.8 25.7 16.5 25.7 15.4 27.7 16.5 29.7 18.8 29.7 19.9 27.7 18.8 25.7"/><polygon class="cls-1" points="27.9 25.7 25.6 25.7 24.4 27.7 25.6 29.7 27.9 29.7 29 27.7 27.9 25.7"/><polygon class="cls-1" points="22.9 34.7 21 34.7 20 36.3 21 38 22.9 38 23.9 36.3 22.9 34.7"/><polygon class="cls-1" points="32.9 0 29.1 0 27.2 3.3 29.1 6.6 32.9 6.6 34.9 3.3 32.9 0"/><polygon class="cls-1" points="14.5 16.2 11.3 16.2 9.8 18.9 11.3 21.6 14.5 21.6 16 18.9 14.5 16.2"/><polygon class="cls-1" points="32.6 16.2 29.5 16.2 27.9 18.9 29.5 21.6 32.6 21.6 34.2 18.9 32.6 16.2"/><polygon class="cls-1" points="23.3 16.6 20.6 16.6 19.3 18.9 20.6 21.2 23.3 21.2 24.6 18.9 23.3 16.6"/><polygon class="cls-1" points="37.4 7.8 33.6 7.8 31.7 11.1 33.6 14.4 37.4 14.4 39.3 11.1 37.4 7.8"/><polygon class="cls-1" points="9.7 25 6.6 25 5 27.7 6.6 30.4 9.7 30.4 11.3 27.7 9.7 25"/><polygon class="cls-1" points="12.4 34.9 10.6 34.9 9.7 36.5 10.6 38 12.4 38 13.3 36.5 12.4 34.9"/><polygon class="cls-1" points="42 15.7 38.2 15.7 36.3 19 38.2 22.3 42 22.3 43.9 19 42 15.7"/><polygon class="cls-1" points="37.3 25 34.2 25 32.6 27.7 34.2 30.4 37.3 30.4 38.9 27.7 37.3 25"/><polygon class="cls-1" points="33.3 33.7 30.8 33.7 29.5 35.8 30.8 38 33.3 38 34.5 35.8 33.3 33.7"/><path class="cls-2" d="M84.494,34.7H78.26L67.03,15.531V34.7H61.2V5.581h6.234l11.229,19.19V5.581h5.828V34.7Z"/><path class="cls-2" d="M110.04,34.7H108.7l-2.152-2.985a17.5,17.5,0,0,1-1.675,1.33,12.357,12.357,0,0,1-1.858,1.076,11.367,11.367,0,0,1-2,.722,8.327,8.327,0,0,1-2.081.264,12.006,12.006,0,0,1-4.315-.771,10.242,10.242,0,0,1-3.533-2.244,10.507,10.507,0,0,1-2.387-3.6,12.717,12.717,0,0,1-.873-4.854,12.137,12.137,0,0,1,.873-4.66,11.1,11.1,0,0,1,2.387-3.645,10.761,10.761,0,0,1,3.533-2.366,11.1,11.1,0,0,1,4.315-.843,8.445,8.445,0,0,1,2.091.264,10.873,10.873,0,0,1,2.011.731,12.57,12.57,0,0,1,1.858,1.1,15.435,15.435,0,0,1,1.654,1.36l2.152-2.579h1.341V34.7Zm-5.584-11.067a5.764,5.764,0,0,0-.437-2.2,6.324,6.324,0,0,0-1.187-1.888,5.906,5.906,0,0,0-1.757-1.32,4.764,4.764,0,0,0-2.142-.5,5.922,5.922,0,0,0-2.143.386,4.871,4.871,0,0,0-1.746,1.137,5.32,5.32,0,0,0-1.168,1.858,6.992,6.992,0,0,0-.427,2.527,6.994,6.994,0,0,0,.427,2.528,5.32,5.32,0,0,0,1.168,1.858,4.863,4.863,0,0,0,1.746,1.137,5.912,5.912,0,0,0,2.143.386,4.757,4.757,0,0,0,2.142-.5,5.9,5.9,0,0,0,1.757-1.32,6.32,6.32,0,0,0,1.188-1.889A5.757,5.757,0,0,0,104.456,23.633Z"/><path class="cls-2" d="M141.921,34.7H136.4V20.892a2.771,2.771,0,0,0-2.782-2.782,2.672,2.672,0,0,0-1.939.812,2.868,2.868,0,0,0-.589.894,2.759,2.759,0,0,0-.213,1.076V34.7H125.33V20.892a2.768,2.768,0,0,0-.812-1.97,2.792,2.792,0,0,0-.894-0.6,2.758,2.758,0,0,0-1.077-.213,2.672,2.672,0,0,0-1.938.812,2.834,2.834,0,0,0-.589.894,2.742,2.742,0,0,0-.214,1.076V34.7h-5.543V12.952h1.34l1.5,1.666a8.945,8.945,0,0,1,2.548-1.513,7.959,7.959,0,0,1,2.894-.538,8.1,8.1,0,0,1,2.976.569,6.018,6.018,0,0,1,2.548,1.97,5.619,5.619,0,0,1,1.158-1.178,6.464,6.464,0,0,1,1.37-.792,6.734,6.734,0,0,1,1.493-.437,9.019,9.019,0,0,1,1.522-.132,8.124,8.124,0,0,1,3.239.65,8.268,8.268,0,0,1,4.416,4.427,8.187,8.187,0,0,1,.65,3.249V34.7Z"/><path class="cls-2" d="M154.612,29.38a3.117,3.117,0,0,0,.649.132q0.325,0.031.65,0.03a5.476,5.476,0,0,0,1.563-.223,5.7,5.7,0,0,0,1.411-.64,5.275,5.275,0,0,0,1.178-1.016,5.357,5.357,0,0,0,.843-1.33l4.062,4.081a10.9,10.9,0,0,1-1.777,1.97,11.132,11.132,0,0,1-2.173,1.482,10.863,10.863,0,0,1-2.457.925,11.176,11.176,0,0,1-2.649.314,10.975,10.975,0,0,1-7.849-3.229,11.148,11.148,0,0,1-2.387-3.625,11.93,11.93,0,0,1-.873-4.62,12.319,12.319,0,0,1,.873-4.711,10.652,10.652,0,0,1,5.92-5.97,11.219,11.219,0,0,1,4.315-.833,10.95,10.95,0,0,1,2.66.325,11.136,11.136,0,0,1,4.649,2.426,11.059,11.059,0,0,1,1.787,1.98Zm2.843-11.433a3.21,3.21,0,0,0-.762-0.183,7.207,7.207,0,0,0-.781-0.041,5.544,5.544,0,0,0-2.143.416,5.1,5.1,0,0,0-1.746,1.188,5.589,5.589,0,0,0-1.168,1.857,6.659,6.659,0,0,0-.427,2.447c0,0.2.011,0.434,0.03,0.69s0.055,0.519.1,0.782,0.105,0.518.173,0.762a2.82,2.82,0,0,0,.264.649Z"/></svg>